<svg xmlns="http://www.w3.org/2000/svg" width="1600" height="900" viewBox="0 0 1600 900" role="img" aria-label="Placeholder: contact and location">
  <defs>
    <linearGradient id="cs" x1="50%" y1="0%" x2="50%" y2="100%">
      <stop offset="0%" stop-color="#0a5f66"/>
      <stop offset="100%" stop-color="#042a2e"/>
    </linearGradient>
  </defs>
  <rect width="1600" height="900" fill="url(#cs)"/>
  <ellipse cx="800" cy="880" rx="700" ry="200" fill="#d4af37" opacity="0.12"/>
  <path fill="#ffffff" opacity="0.1" d="M800 220c-140 0-254 114-254 254 0 190 254 346 254 346s254-156 254-346c0-140-114-254-254-254zm0 344c-76 0-138-62-138-138s62-138 138-138 138 62 138 138-62 138-138 138z"/>
  <rect x="520" y="560" width="560" height="140" rx="20" fill="#ffffff" opacity="0.08"/>
  <text x="800" y="780" text-anchor="middle" fill="#fffbf0" opacity="0.4" font-family="system-ui,sans-serif" font-size="26">Placeholder  Office &amp; support</text>
</svg>
